<?xml version="1.0" standalone="no"?>
<!DOCTYPE svg PUBLIC "-//W3C//DTD SVG 20010904//EN"
 "http://www.w3.org/TR/2001/REC-SVG-20010904/DTD/svg10.dtd">
<svg version="1.0" xmlns="http://www.w3.org/2000/svg"
 width="700.000000pt" height="700.000000pt" viewBox="0 0 700.000000 700.000000"
 preserveAspectRatio="xMidYMid meet">
<metadata>
Created by potrace 1.11, written by Peter Selinger 2001-2013
</metadata>
<g transform="translate(0.000000,700.000000) scale(0.100000,-0.100000)"
fill="#000000" stroke="none">
<path d="M3297 6994 c-1 -1 -38 -4 -82 -7 -78 -6 -216 -22 -265 -32 -13 -3
-42 -7 -65 -10 -22 -4 -56 -10 -75 -15 -19 -5 -51 -12 -70 -15 -63 -10 -282
-74 -395 -113 -434 -154 -843 -394 -1170 -688 -178 -159 -277 -266 -465 -501
-78 -96 -250 -374 -323 -518 -82 -163 -197 -436 -212 -505 -2 -8 -4 -15 -5
-15 -1 0 -3 -7 -5 -15 -1 -8 -14 -53 -28 -100 -25 -79 -43 -151 -53 -210 -3
-14 -7 -33 -10 -42 -8 -26 -28 -152 -49 -303 -13 -94 -19 -223 -19 -400 0
-246 8 -366 40 -560 8 -49 17 -103 20 -120 3 -16 7 -38 10 -47 3 -9 7 -25 9
-35 22 -107 94 -363 115 -408 5 -11 30 -74 56 -140 47 -122 162 -361 209 -435
14 -22 25 -42 25 -44 0 -12 186 -283 258 -375 137 -176 359 -405 511 -527 13
-10 28 -24 35 -29 62 -57 313 -230 451 -311 265 -156 713 -334 955 -379 14 -3
36 -8 50 -11 60 -15 220 -44 275 -50 33 -3 63 -8 67 -10 15 -9 219 -19 408
-19 218 0 331 7 478 29 137 21 250 42 307 58 22 5 51 12 65 15 70 12 321 94
470 153 116 47 335 154 450 222 680 401 1196 1004 1483 1733 65 166 126 357
152 479 45 206 70 363 83 506 7 84 8 481 2 577 l-5 62 -95 45 c-256 121 -515
198 -842 250 -88 14 -206 21 -378 21 -168 0 -343 -10 -360 -20 -3 -2 -32 -6
-64 -9 -32 -4 -62 -8 -65 -10 -3 -2 -22 -7 -41 -10 -209 -34 -548 -165 -795
-307 -155 -89 -368 -243 -510 -369 -59 -52 -299 -293 -335 -335 -13 -17 -51
-61 -83 -100 -32 -38 -66 -79 -75 -90 -10 -11 -58 -69 -107 -130 -377 -459
-788 -712 -1167 -717 -356 -4 -690 179 -1033 567 -178 200 -439 626 -564 917
l-20 47 58 -47 c67 -53 237 -172 248 -172 3 0 14 -6 22 -14 9 -7 43 -28 75
-45 33 -17 64 -35 70 -39 32 -24 319 -144 376 -157 8 -2 49 -12 90 -24 72 -19
144 -33 240 -46 51 -6 233 -7 300 0 108 11 260 50 365 95 76 32 140 64 143 73
2 4 8 7 14 7 12 0 172 110 218 150 129 114 266 268 369 417 42 60 42 62 27 91
-8 16 -48 74 -89 128 -264 355 -663 615 -1126 736 -64 16 -117 31 -119 33 -2
1 21 15 50 30 226 117 463 270 673 434 61 47 112 88 115 91 3 3 41 37 85 76
107 93 215 201 299 299 38 44 72 82 76 85 12 9 115 152 169 235 127 195 240
467 276 660 24 130 32 240 22 290 -4 18 -12 20 -101 20 -54 0 -98 0 -99 -1z
m2323 -3638 c103 -16 214 -114 245 -218 49 -165 -20 -321 -175 -396 -47 -23
-68 -27 -140 -26 -72 0 -93 4 -138 27 -65 34 -122 92 -153 155 -33 65 -34 205
-3 273 44 95 131 164 234 185 30 6 62 10 70 9 8 -1 35 -5 60 -9z"/>
</g>
</svg>
