<svg xmlns="http://www.w3.org/2000/svg"><symbol id="check" viewBox="0 0 24 24"><path fill="none" d="M0 0h24v24H0z"/><path d="M9 16.2L4.8 12l-1.4 1.4L9 19 21 7l-1.4-1.4z"/></symbol><symbol id="email" viewBox="0 0 24 24"><path d="M20 4H4a2 2 0 0 0-2 2v12a2 2 0 0 0 2 2h16a2 2 0 0 0 2-2V6a2 2 0 0 0-2-2zm0 4l-8 5-8-5V6l8 5 8-5z"/><path fill="none" d="M0 0h24v24H0z"/></symbol><symbol id="instagram" viewBox="0 0 256 256"><path d="M128 23.9c33.9 0 37.9.1 51.3.7s19.1 2.7 23.6 4.4a39.7 39.7 0 0 1 14.6 9.5 39.7 39.7 0 0 1 9.5 14.6c1.7 4.5 3.8 11.2 4.4 23.6s.7 17.4.7 51.3-.1 37.9-.7 51.3-2.7 19.1-4.4 23.6a42.1 42.1 0 0 1-24.1 24.1c-4.5 1.7-11.2 3.8-23.6 4.4s-17.4.7-51.3.7-37.9-.1-51.3-.7-19.1-2.7-23.6-4.4a39.7 39.7 0 0 1-14.6-9.5 39.7 39.7 0 0 1-9.5-14.6c-1.7-4.5-3.8-11.2-4.4-23.6s-.7-17.4-.7-51.3.1-37.9.7-51.3 2.7-19.1 4.4-23.6a39.7 39.7 0 0 1 9.5-14.6A39.7 39.7 0 0 1 53.1 29c4.5-1.7 11.2-3.8 23.6-4.4s17.4-.7 51.3-.7M128 1c-34.5 0-38.8.1-52.4.8S52.9 4.5 44.8 7.7A64.4 64.4 0 0 0 7.7 44.8c-3.2 8.1-5.3 17.3-5.9 30.8S1 93.5 1 128s.1 38.8.8 52.4 2.7 22.7 5.9 30.8a64.4 64.4 0 0 0 37.1 37.1c8.1 3.2 17.3 5.3 30.8 5.9s17.9.8 52.4.8 38.8-.1 52.4-.8 22.7-2.7 30.8-5.9a64.4 64.4 0 0 0 37.1-37.1c3.2-8.1 5.3-17.3 5.9-30.8s.8-17.9.8-52.4-.1-38.8-.8-52.4-2.7-22.7-5.9-30.8a64.4 64.4 0 0 0-37.1-37.1c-8.1-3.2-17.3-5.3-30.8-5.9S162.5 1 128 1z"/><path d="M128 62.8a65.2 65.2 0 1 0 65.2 65.2A65.2 65.2 0 0 0 128 62.8zm0 107.5a42.3 42.3 0 1 1 42.3-42.3 42.3 42.3 0 0 1-42.3 42.3z"/><circle cx="195.8" cy="60.2" r="15.2"/></symbol><symbol id="logo" viewBox="0 0 256 256"><path d="M121.3 150.8c-61.9 79.4-104-26.1-104-26.1s56.3 50.9 95.6-9.4c0 0-13.4-26.3-49.4-33.5 0 0 60.6-28.5 64.6-76.2a18.1 18.1 0 0 0-.3-4.6h-6l-5.5.3h-.5l-5.3.6h-.6l-5.3.9h-.7c-1.7.4-3.5.7-5.2 1.2H98l-5.3 2-.5.2-5.4 1.7h-.4L80.9 10a124.7 124.7 0 0 0-28 15.5 122.5 122.5 0 0 0-9.7 7.8l-2.3 2.1c-3 2.9-5.8 5.8-8.5 8.9s-2.7 3.1-3.9 4.7l-3.7 5c-1.8 2.5-3.5 5.1-5.1 7.7s-2.1 3.5-3 5.3-1.9 3.6-2.8 5.4a87.5 87.5 0 0 0-3.7 8.3c-.4 1-.8 1.9-1.1 2.9s-1.4 3.8-2 5.7-1.2 3.9-1.8 5.9a127.1 127.1 0 0 0 56.4 141.1c1.7 1 3.5 2.1 5.3 3l5.4 2.8 2.7 1.3a89.3 89.3 0 0 0 8.5 3.5c1.9.8 3.8 1.4 5.7 2l5.9 1.8c2.9.8 5.9 1.4 8.9 2l6.1 1a59.8 59.8 0 0 0 6.1.7c4 .4 8.2.6 12.3.6h3.1c4.1-.1 8.3-.4 12.4-.9a129 129 0 0 0 31-8.1l3.6-1.5a127 127 0 0 0 75.7-128.7c-13.4-7.1-78-35.7-133.1 35zm85.7 5.1a12 12 0 0 1-15.5-6.7 11.9 11.9 0 1 1 15.5 6.7z"/></symbol><symbol id="phone" viewBox="0 0 24 24"><path fill="none" d="M0 0h24v24H0z"/><path d="M6.6 10.8a16.1 16.1 0 0 0 6.6 6.6l2.2-2.2a1 1 0 0 1 1-.3 11.3 11.3 0 0 0 3.6.6 1.1 1.1 0 0 1 1 1V20a1.1 1.1 0 0 1-1 1A17 17 0 0 1 3 4a1.1 1.1 0 0 1 1-1h3.5a1 1 0 0 1 1 1 11.3 11.3 0 0 0 .6 3.6 1 1 0 0 1-.3 1z"/></symbol><symbol id="twitter" viewBox="0 0 256 256"><path fill-rule="evenodd" d="M255 49.3a106.7 106.7 0 0 1-29.9 8.2A52.9 52.9 0 0 0 248 28.7a102.8 102.8 0 0 1-33.1 12.6 52.1 52.1 0 0 0-88.8 47.5A148.1 148.1 0 0 1 18.7 34.4a52 52 0 0 0 16.1 69.5 51.1 51.1 0 0 1-23.6-6.5v.7a52.1 52.1 0 0 0 41.8 51 53.4 53.4 0 0 1-23.5.9 52.2 52.2 0 0 0 48.7 36.2 105.4 105.4 0 0 1-64.8 22.3 101.9 101.9 0 0 1-12.4-.8 147.3 147.3 0 0 0 79.9 23.4c95.8 0 148.3-79.3 148.3-148.1 0-2.3-.1-4.5-.2-6.7a107.6 107.6 0 0 0 26-27z"/></symbol><symbol id="youtube" viewBox="0 0 256 256"><path d="M249.7 66.5a31.7 31.7 0 0 0-22.5-22.6c-19.8-5.4-99.2-5.4-99.2-5.4s-79.4 0-99.2 5.4A31.7 31.7 0 0 0 6.3 66.5C1 86.4 1 128 1 128s0 41.6 5.3 61.5a31.7 31.7 0 0 0 22.5 22.6c19.8 5.4 99.2 5.4 99.2 5.4s79.4 0 99.2-5.4a31.7 31.7 0 0 0 22.5-22.6C255 169.6 255 128 255 128s0-41.6-5.3-61.5zM102 165.8V90.2l66.4 37.8z"/></symbol></svg>