<svg xmlns="http://www.w3.org/2000/svg"><symbol id="logo" viewBox="0 0 256 256"><path d="M121.3 150.8c-61.9 79.4-104-26.1-104-26.1s56.3 50.9 95.6-9.4c0 0-13.4-26.3-49.4-33.5 0 0 60.6-28.5 64.6-76.2a18.1 18.1 0 0 0-.3-4.6h-6l-5.5.3h-.5l-5.3.6h-.6l-5.3.9h-.7c-1.7.4-3.5.7-5.2 1.2H98l-5.3 2-.5.2-5.4 1.7h-.4L80.9 10a124.7 124.7 0 0 0-28 15.5 122.5 122.5 0 0 0-9.7 7.8l-2.3 2.1c-3 2.9-5.8 5.8-8.5 8.9s-2.7 3.1-3.9 4.7l-3.7 5c-1.8 2.5-3.5 5.1-5.1 7.7s-2.1 3.5-3 5.3-1.9 3.6-2.8 5.4a87.5 87.5 0 0 0-3.7 8.3c-.4 1-.8 1.9-1.1 2.9s-1.4 3.8-2 5.7-1.2 3.9-1.8 5.9a127.1 127.1 0 0 0 56.4 141.1c1.7 1 3.5 2.1 5.3 3l5.4 2.8 2.7 1.3a89.3 89.3 0 0 0 8.5 3.5c1.9.8 3.8 1.4 5.7 2l5.9 1.8c2.9.8 5.9 1.4 8.9 2l6.1 1a59.8 59.8 0 0 0 6.1.7c4 .4 8.2.6 12.3.6h3.1c4.1-.1 8.3-.4 12.4-.9a129 129 0 0 0 31-8.1l3.6-1.5a127 127 0 0 0 75.7-128.7c-13.4-7.1-78-35.7-133.1 35zm85.7 5.1a12 12 0 0 1-15.5-6.7 11.9 11.9 0 1 1 15.5 6.7z"/></symbol><symbol id="menu" viewBox="0 0 24 24"><path fill="none" d="M0 0h24v24H0z"/><path d="M3 18h18v-2H3zm0-5h18v-2H3zm0-7v2h18V6z"/></symbol></svg>